<svg width="20" height="20" viewBox="0 0 20 20" fill="none" xmlns="http://www.w3.org/2000/svg">
<path d="M6.66663 8.33333V5.83333V5.83333C6.66663 3.9925 8.15913 2.5 9.99996 2.5V2.5C11.8408 2.5 13.3333 3.9925 13.3333 5.83333V5.83333V8.33333" stroke="#929292" stroke-width="1.5" stroke-linecap="round" stroke-linejoin="round"/>
<path fill-rule="evenodd" clip-rule="evenodd" d="M14.1666 17.5002H5.83329C4.91246 17.5002 4.16663 16.7543 4.16663 15.8335V10.0002C4.16663 9.07933 4.91246 8.3335 5.83329 8.3335H14.1666C15.0875 8.3335 15.8333 9.07933 15.8333 10.0002V15.8335C15.8333 16.7543 15.0875 17.5002 14.1666 17.5002Z" stroke="#929292" stroke-width="1.5" stroke-linecap="round" stroke-linejoin="round"/>
<path d="M7.50004 12.9511C7.49754 12.9511 7.49587 12.9527 7.49587 12.9552C7.49587 12.9577 7.49754 12.9594 7.50004 12.9594C7.50254 12.9594 7.50421 12.9577 7.50421 12.9552C7.50421 12.9527 7.50254 12.9511 7.50004 12.9511" stroke="#929292" stroke-width="1.5" stroke-linecap="round" stroke-linejoin="round"/>
<path d="M10.0042 12.9511C10.0017 12.9511 10 12.9527 10 12.9552C10 12.9577 10.0025 12.9594 10.0042 12.9594C10.0067 12.9594 10.0084 12.9577 10.0084 12.9552C10.0084 12.9527 10.0067 12.9511 10.0042 12.9511" stroke="#929292" stroke-width="1.5" stroke-linecap="round" stroke-linejoin="round"/>
<path d="M12.5 12.9511C12.4975 12.9511 12.4959 12.9527 12.4959 12.9552C12.4959 12.9577 12.4975 12.9594 12.5 12.9594C12.5025 12.9594 12.5042 12.9577 12.5042 12.9552C12.5042 12.9527 12.5025 12.9511 12.5 12.9511" stroke="#929292" stroke-width="1.5" stroke-linecap="round" stroke-linejoin="round"/>
</svg>
